<?xml version="1.0" standalone="no"?>
<!DOCTYPE svg PUBLIC "-//W3C//DTD SVG 20010904//EN"
 "http://www.w3.org/TR/2001/REC-SVG-20010904/DTD/svg10.dtd">
<svg version="1.0" xmlns="http://www.w3.org/2000/svg"
 width="700.000000pt" height="700.000000pt" viewBox="0 0 700.000000 700.000000"
 preserveAspectRatio="xMidYMid meet">
<metadata>
Created by potrace 1.14, written by Peter Selinger 2001-2017
</metadata>
<g transform="translate(0.000000,700.000000) scale(0.100000,-0.100000)"
fill="#000000" stroke="none">
<path d="M3318 6955 c-2 -1 -47 -6 -100 -9 -53 -4 -107 -9 -119 -11 -12 -2
-47 -7 -78 -10 -245 -27 -627 -135 -916 -260 -358 -154 -741 -415 -1024 -696
-259 -257 -401 -443 -611 -799 -17 -30 -109 -216 -130 -265 -97 -221 -181
-478 -220 -674 -17 -82 -39 -205 -45 -251 -3 -25 -8 -61 -10 -80 -25 -193 -25
-646 -1 -800 3 -14 7 -45 10 -70 82 -637 368 -1274 799 -1778 l79 -92 -421
-422 -422 -422 103 -103 c74 -74 105 -99 114 -92 7 5 197 195 423 421 l411
412 22 -20 c309 -274 606 -462 993 -629 139 -60 431 -153 565 -179 28 -5 112
-23 150 -31 136 -29 383 -49 605 -49 279 0 438 15 720 69 87 17 248 62 390
110 1237 413 2139 1502 2320 2800 36 255 40 645 10 875 -3 19 -7 55 -10 80 -7
57 -11 82 -36 205 -106 524 -331 1015 -656 1433 -72 92 -99 124 -166 199 l-20
23 421 421 c232 232 422 423 422 423 0 1 -46 48 -103 104 l-103 103 -422 -422
-422 -422 -27 24 c-16 13 -30 26 -33 29 -66 65 -451 350 -474 350 -2 0 -33 17
-67 38 -82 50 -216 120 -299 156 -36 16 -83 37 -105 47 -251 111 -677 222
-935 244 -41 3 -88 9 -105 12 -30 5 -472 13 -477 8z m412 -300 c68 -3 127 -8
130 -10 3 -1 28 -6 55 -9 98 -13 121 -17 200 -32 177 -34 377 -93 560 -166
140 -56 205 -87 180 -89 -11 -1 -47 -2 -80 -4 -59 -2 -165 -12 -235 -21 -19
-3 -51 -7 -70 -10 -76 -10 -281 -57 -395 -91 -511 -151 -1056 -444 -1536 -826
l-37 -29 -68 50 c-105 76 -376 251 -494 319 -90 52 -299 157 -365 183 -11 4
-33 13 -49 19 l-29 12 59 46 c147 114 325 228 490 313 274 142 643 267 899
304 22 4 65 10 95 16 88 14 133 19 252 26 62 3 114 7 115 8 4 3 207 -2 323 -9z
m1196 -606 c149 -3 295 -28 425 -75 79 -28 208 -92 249 -123 l25 -20 -846
-845 -845 -845 -84 81 c-256 244 -413 388 -605 554 -118 102 -361 303 -432
358 -57 43 -76 66 -55 66 4 0 44 28 87 61 291 224 694 451 1035 584 230 90
431 146 625 176 39 6 81 12 95 15 14 2 66 7 115 10 50 3 92 8 94 10 2 2 7 2
10 -1 4 -2 52 -5 107 -6z m-3486 -394 c177 -68 364 -171 648 -359 l184 -121
-115 -110 c-64 -60 -164 -161 -224 -223 l-108 -113 -121 183 c-180 271 -337
558 -374 683 -31 105 -31 105 -1 99 14 -4 64 -21 111 -39z m4429 -83 c76 -118
139 -297 166 -467 14 -88 15 -456 1 -515 -3 -13 -8 -42 -11 -65 -30 -215 -130
-548 -230 -770 -158 -349 -303 -598 -523 -895 l-85 -115 -26 34 c-38 49 -263
324 -275 337 -6 6 -29 33 -51 59 -22 27 -44 53 -50 59 -5 6 -37 43 -70 81 -33
39 -69 79 -80 90 -11 11 -38 41 -59 65 -50 58 -236 257 -348 374 l-87 91 842
842 c463 463 845 842 848 843 4 0 21 -22 38 -48z m-4674 -388 c104 -194 240
-411 387 -617 l49 -68 -71 -92 c-247 -319 -449 -656 -615 -1022 -96 -212 -200
-536 -241 -750 -4 -22 -9 -47 -10 -55 -17 -82 -37 -280 -38 -373 -1 -73 -2
-77 -16 -56 -42 64 -151 360 -200 544 -26 98 -69 325 -84 443 -23 180 -23 599
-1 707 2 11 6 43 9 70 34 318 161 723 329 1045 96 183 254 426 335 512 l25 27
42 -103 c23 -56 68 -152 100 -212z m1422 -270 c109 -85 222 -178 329 -269 38
-33 97 -82 129 -110 32 -27 63 -55 69 -61 6 -5 36 -32 66 -59 108 -94 267
-242 390 -362 l124 -121 -327 -328 -328 -329 -107 110 c-106 109 -301 317
-342 365 -12 14 -36 41 -54 60 -17 19 -85 98 -151 175 -66 77 -122 142 -125
145 -3 3 -21 25 -40 50 -19 25 -37 47 -40 50 -3 3 -50 60 -104 128 l-98 123
18 27 c22 34 471 482 483 482 6 0 54 -34 108 -76z m3759 -87 c3 -12 14 -40 24
-62 70 -155 168 -454 186 -565 2 -14 7 -36 10 -50 3 -14 8 -36 10 -50 3 -14 9
-47 14 -75 5 -27 12 -72 15 -100 4 -27 8 -61 11 -75 6 -40 17 -257 17 -350 1
-143 -14 -348 -33 -460 -5 -30 -12 -70 -15 -87 -3 -18 -7 -48 -10 -65 -3 -18
-17 -80 -31 -138 -87 -358 -246 -716 -452 -1020 -85 -125 -169 -232 -175 -223
-3 5 -21 49 -42 98 -85 208 -297 568 -486 826 -27 37 -49 69 -49 72 0 3 6 12
13 19 7 7 55 69 107 138 295 396 514 794 666 1211 45 124 117 369 130 443 1
12 5 33 8 49 37 207 48 302 50 429 1 58 4 74 13 66 7 -5 15 -20 19 -31z
m-4490 -664 c71 -90 323 -394 333 -403 4 -3 31 -34 61 -69 30 -35 64 -74 75
-86 11 -11 56 -61 100 -110 80 -89 145 -157 313 -335 l90 -95 -845 -845 -844
-845 -20 25 c-36 46 -118 224 -144 314 -28 99 -30 110 -40 192 -4 33 -9 68
-11 79 -6 29 -5 270 1 340 16 174 74 437 146 649 127 379 375 838 639 1182 33
43 60 82 60 86 0 22 23 1 86 -79z m2155 -551 c134 -138 235 -246 329 -351 41
-47 80 -89 85 -95 45 -46 275 -320 379 -451 70 -88 134 -168 142 -178 8 -9 14
-22 14 -28 0 -13 -485 -499 -499 -499 -24 0 -615 488 -762 629 -9 9 -63 59
-120 111 -57 52 -155 145 -219 207 l-115 111 325 326 c179 179 328 326 331
326 3 0 52 -48 110 -108z m-861 -862 c103 -99 215 -204 385 -360 54 -49 330
-286 385 -330 24 -19 48 -39 54 -45 12 -11 149 -121 211 -170 l37 -29 -24 -21
c-33 -27 -78 -61 -157 -117 -36 -26 -70 -51 -76 -55 -60 -49 -371 -234 -522
-311 -276 -140 -668 -281 -883 -317 -109 -18 -149 -25 -180 -30 -59 -11 -432
-14 -490 -4 -30 5 -79 14 -107 20 -29 6 -55 10 -58 10 -3 0 -44 13 -92 30 -90
32 -219 95 -263 128 l-25 20 845 845 845 845 39 -37 c22 -20 56 -53 76 -72z
m2107 -647 c183 -276 290 -468 358 -638 15 -38 31 -79 35 -90 5 -11 11 -32 14
-46 6 -26 5 -27 -32 -18 -168 38 -583 264 -895 490 l-38 28 38 33 c66 58 393
391 393 400 0 26 28 -9 127 -159z m-768 -487 c27 -23 334 -230 374 -251 20
-11 37 -23 37 -27 0 -5 4 -8 9 -8 5 0 40 -19 77 -42 107 -64 290 -157 391
-198 l92 -37 -27 -25 c-105 -98 -407 -288 -612 -386 -150 -71 -462 -186 -564
-206 -12 -3 -61 -14 -111 -25 -217 -48 -454 -74 -685 -74 -114 0 -292 10 -360
19 -33 5 -251 40 -315 51 -50 8 -325 89 -410 121 -124 45 -285 115 -280 121 3
3 34 6 68 7 75 1 236 14 257 19 8 2 40 7 70 10 30 4 58 9 61 11 4 2 24 6 45
10 78 11 312 74 429 114 235 81 535 219 750 343 95 54 330 204 381 241 23 17
54 40 70 51 15 11 73 55 128 97 56 43 103 77 105 78 3 0 12 -6 20 -14z"/>
</g>
</svg>
